<svg xmlns="http://www.w3.org/2000/svg" width="1330" height="360" viewBox="0 0 1330 360" xmlns:xlink="http://www.w3.org/1999/xlink">
  <defs>
    <path id="a" d="M300,295.507603 L300,302 C300,306.418278 296.418278,310 292,310 L258,310 C253.581722,310 250,306.418278 250,302 L250,58 C250,53.581722 253.581722,50 258,50 L292,50 C296.418278,50 300,53.581722 300,58 L300,144.492397 C310.673676,135.514031 322.52289,130 335,130 C381.944204,130 420,168.055796 420,215 L420,225 C420,271.944204 381.944204,310 335,310 C322.52289,310 310.673676,304.485969 299.999997,295.5076 Z M99.9999968,144.4924 C110.673676,135.514031 122.52289,130 135,130 C181.944204,130 220,168.055796 220,215 L220,302 C220,306.418278 216.418278,310 212,310 L178,310 C173.581722,310 170,306.418278 170,302 L170,215 C170,195.670034 154.329966,180 135,180 C115.670034,180 100,200.670034 100,220 L100,302 C100,306.418278 96.418278,310 92,310 L58,310 C53.581722,310 50,306.418278 50,302 L50,58 C50,53.581722 53.581722,50 58,50 L92,50 C96.418278,50 100,53.581722 100,58 L100,144.492397 Z M592.5,310 L558,310 C553.581722,310 550,306.418278 550,302 L550,205 C550,191.192881 538.807119,180 525,180 C511.192881,180 500,196.192881 500,210 L500,302 C500,306.418278 496.418278,310 492,310 L458,310 C453.581722,310 450,306.418278 450,302 L450,138 C450,133.581722 453.581722,130 458,130 L492,130 C496.418278,130 500,133.581722 500,138 L500,140.037752 C507.819473,133.743159 516.234114,130 525,130 C546.395192,130 565.697959,138.958739 579.361672,153.329591 C592.027798,139.386136 607.952796,130 625.25,130 C666.533285,130 700,163.466715 700,204.75 L700,302 C700,306.418278 696.418278,310 692,310 L658,310 C653.581722,310 650,306.418278 650,302 L650,204.75 C650,191.080952 638.919048,180 625.25,180 C611.580952,180 600.5,196.080952 600.5,209.75 L600.5,302 C600.5,306.418278 596.918278,310 592.5,310 Z M900,215 L900,227 C900,231.418278 896.418278,235 892,235 L781.416524,235 C785.655965,249.531855 798.94935,260 815,260 C827.278414,260 838.245065,257.128675 848.083205,252.265166 C849.8689,251.382403 851.952509,250.196124 854.334031,248.70633 C857.943505,246.448373 862.689088,247.412983 865.130628,250.900898 L884.543329,278.633328 C887.077045,282.252922 886.196766,287.241165 882.577172,289.774881 C876.471554,293.621362 872.47048,295.985245 870.241151,297.087319 C853.867842,305.181506 835.464232,310 815,310 C767.794737,310 730,272.046694 730,225 L730,215 C730,168.055796 768.055796,130 815,130 C861.944204,130 900,168.055796 900,215 Z M1010,130 C1060,130 1090,168.055796 1090,215 L1090,302 C1090,306.418278 1086.41828,310 1082,310 L1048,310 C1043.58172,310 1040,306.418278 1040,302 L1040,215 C1040,195.670034 1029.32997,180 1010,180 C990.670034,180 980,200.670034 980,220 L980,302 C980,306.418278 976.418278,310 972,310 L938,310 C933.581722,310 930,306.418278 930,302 L930,138 C930,133.581722 933.581722,130 938,130 L972,130 C976.418278,130 980,133.581722 980,138 L980,144.492397 C987.5,135.5 997.52289,130 1010,130 Z M1200,310 C1153.0558,310 1120,269.5 1120,225 L1120,138 C1120,133.581722 1123.58172,130 1128,130 L1162,130 C1166.41828,130 1170,133.581722 1170,138 L1170,225 C1170,244.329966 1180.67003,260 1200,260 C1219.32997,260 1230,239.329966 1230,220 L1230,138 C1230,133.581722 1233.58172,130 1238,130 L1272,130 C1276.41828,130 1280,133.581722 1280,138 C1280,176.874227 1280,205.874227 1280,225 C1280,242.318672 1280,267.985338 1280,302 C1280,306.418278 1276.41828,310 1272,310 L1238,310 C1233.58172,310 1230,306.418278 1230,302 L1230,295.507603 C1219.32632,304.485969 1212.47711,310 1200,310 Z M370,225 L370,215 C370,195.670034 354.329966,180 335,180 C315.670034,180 300,200.670034 300,220 C300,239.329966 315.670034,260 335,260 C354.329966,260 370,244.329966 370,225 Z M848.550607,205 C844.247861,190.542555 830.855103,180 815,180 C799.144897,180 785.752139,190.542555 781.449393,205 L848.550607,205 Z"/>
  </defs>
  <g fill="none" fill-rule="evenodd">
    <mask id="b" fill="white">
      <use xlink:href="#a"/>
    </mask>
    <use fill="#000000" fill-rule="nonzero" xlink:href="#a"/>
    <rect width="1330" height="360" fill="#222222" mask="url(#b)"/>
  </g>
</svg>
