<svg xmlns="http://www.w3.org/2000/svg" width="256" height="256" viewBox="0 0 256 256" xmlns:xlink="http://www.w3.org/1999/xlink" style="background:#2d2d36">
  <defs>
    <linearGradient id="a" x1="50%" x2="50%" y1="0%" y2="100%">
      <stop stop-color="#65D4FA" stop-opacity="0" offset="0%"/>
      <stop stop-color="#2D98AF" offset="100%"/>
    </linearGradient>
    <path id="b" d="M49.6240602,48.4304127 L49.6240602,49.4944444 C49.6240602,50.2185511 49.0315949,50.8055556 48.3007519,50.8055556 L42.6766917,50.8055556 C41.9458488,50.8055556 41.3533835,50.2185511 41.3533835,49.4944444 L41.3533835,9.50555556 C41.3533835,8.78144888 41.9458488,8.19444444 42.6766917,8.19444444 L48.3007519,8.19444444 C49.0315949,8.19444444 49.6240602,8.78144888 49.6240602,9.50555556 L49.6240602,23.6806984 C51.3896306,22.209244 53.3496509,21.3055556 55.4135338,21.3055556 C63.1787405,21.3055556 69.4736842,27.5424777 69.4736842,35.2361111 L69.4736842,36.875 C69.4736842,44.5686334 63.1787405,50.8055556 55.4135338,50.8055556 C53.3496509,50.8055556 51.3896306,49.9018671 49.6240596,48.4304122 Z M16.5413529,23.6806989 C18.3069239,22.209244 20.2669442,21.3055556 22.3308271,21.3055556 C30.0960337,21.3055556 36.3909774,27.5424777 36.3909774,35.2361111 L36.3909774,49.4944444 C36.3909774,50.2185511 35.7985122,50.8055556 35.0676692,50.8055556 L29.443609,50.8055556 C28.712766,50.8055556 28.1203008,50.2185511 28.1203008,49.4944444 L28.1203008,35.2361111 C28.1203008,32.0681444 25.5282651,29.5 22.3308271,29.5 C19.133389,29.5 16.5413534,32.8875889 16.5413534,36.0555556 L16.5413534,49.4944444 C16.5413534,50.2185511 15.9488881,50.8055556 15.2180451,50.8055556 L9.59398496,50.8055556 C8.86314199,50.8055556 8.27067669,50.2185511 8.27067669,49.4944444 L8.27067669,9.50555556 C8.27067669,8.78144888 8.86314199,8.19444444 9.59398496,8.19444444 L15.2180451,8.19444444 C15.9488881,8.19444444 16.5413534,8.78144888 16.5413534,9.50555556 L16.5413534,23.6806984 Z M98.0075188,50.8055556 L92.3007519,50.8055556 C91.5699089,50.8055556 90.9774436,50.2185511 90.9774436,49.4944444 L90.9774436,33.5972222 C90.9774436,31.3343889 89.1259896,29.5 86.8421053,29.5 C84.558221,29.5 82.7067669,32.1538333 82.7067669,34.4166667 L82.7067669,49.4944444 C82.7067669,50.2185511 82.1143016,50.8055556 81.3834586,50.8055556 L75.7593985,50.8055556 C75.0285555,50.8055556 74.4360902,50.2185511 74.4360902,49.4944444 L74.4360902,22.6166667 C74.4360902,21.89256 75.0285555,21.3055556 75.7593985,21.3055556 L81.3834586,21.3055556 C82.1143016,21.3055556 82.7067669,21.89256 82.7067669,22.6166667 L82.7067669,22.9506316 C84.0002136,21.9190178 85.3921091,21.3055556 86.8421053,21.3055556 C90.3811596,21.3055556 93.5740984,22.7737934 95.8342616,25.1290164 C97.9294102,22.8438389 100.56362,21.3055556 103.424812,21.3055556 C110.253626,21.3055556 115.789474,26.7903783 115.789474,33.55625 L115.789474,49.4944444 C115.789474,50.2185511 115.197008,50.8055556 114.466165,50.8055556 L108.842105,50.8055556 C108.111262,50.8055556 107.518797,50.2185511 107.518797,49.4944444 L107.518797,33.55625 C107.518797,31.316045 105.685857,29.5 103.424812,29.5 C101.163767,29.5 99.3308271,32.1354894 99.3308271,34.3756944 L99.3308271,49.4944444 C99.3308271,50.2185511 98.7383618,50.8055556 98.0075188,50.8055556 Z M148.87218,35.2361111 L148.87218,37.2027778 C148.87218,37.9268844 148.279715,38.5138889 147.548872,38.5138889 L129.256869,38.5138889 C129.95813,40.8954985 132.157035,42.6111111 134.81203,42.6111111 C136.843046,42.6111111 138.657078,42.1405329 140.28444,41.3434577 C140.579818,41.1987827 140.924475,41.0043648 141.318411,40.760204 C141.915467,40.39015 142.700451,40.5482388 143.104314,41.1198694 L146.315438,45.6649065 C146.734549,46.2581177 146.588939,47.0756354 145.990209,47.4908833 C144.980257,48.1212788 144.318425,48.5086929 143.949664,48.6893107 C141.241297,50.015858 138.197091,50.8055556 134.81203,50.8055556 C127.003641,50.8055556 120.75188,44.5854303 120.75188,36.875 L120.75188,35.2361111 C120.75188,27.5424777 127.046823,21.3055556 134.81203,21.3055556 C142.577237,21.3055556 148.87218,27.5424777 148.87218,35.2361111 Z M167.067669,21.3055556 C175.338346,21.3055556 180.300752,27.5424777 180.300752,35.2361111 L180.300752,49.4944444 C180.300752,50.2185511 179.708287,50.8055556 178.977444,50.8055556 L173.353383,50.8055556 C172.62254,50.8055556 172.030075,50.2185511 172.030075,49.4944444 L172.030075,35.2361111 C172.030075,32.0681444 170.265107,29.5 167.067669,29.5 C163.870231,29.5 162.105263,32.8875889 162.105263,36.0555556 L162.105263,49.4944444 C162.105263,50.2185511 161.512798,50.8055556 160.781955,50.8055556 L155.157895,50.8055556 C154.427052,50.8055556 153.834586,50.2185511 153.834586,49.4944444 L153.834586,22.6166667 C153.834586,21.89256 154.427052,21.3055556 155.157895,21.3055556 L160.781955,21.3055556 C161.512798,21.3055556 162.105263,21.89256 162.105263,22.6166667 L162.105263,23.6806984 C163.345865,22.2069444 165.003786,21.3055556 167.067669,21.3055556 Z M198.496241,50.8055556 C190.731034,50.8055556 185.263158,44.1680556 185.263158,36.875 L185.263158,22.6166667 C185.263158,21.89256 185.855623,21.3055556 186.586466,21.3055556 L192.210526,21.3055556 C192.941369,21.3055556 193.533835,21.89256 193.533835,22.6166667 L193.533835,36.875 C193.533835,40.0429667 195.298803,42.6111111 198.496241,42.6111111 C201.693679,42.6111111 203.458647,39.2235222 203.458647,36.0555556 L203.458647,22.6166667 C203.458647,21.89256 204.051112,21.3055556 204.781955,21.3055556 L210.406015,21.3055556 C211.136858,21.3055556 211.729323,21.89256 211.729323,22.6166667 C211.729323,28.9877206 211.729323,33.7404983 211.729323,36.875 C211.729323,39.7133378 211.729323,43.9198193 211.729323,49.4944444 C211.729323,50.2185511 211.136858,50.8055556 210.406015,50.8055556 L204.781955,50.8055556 C204.051112,50.8055556 203.458647,50.2185511 203.458647,49.4944444 L203.458647,48.4304127 C201.693076,49.9018671 200.560123,50.8055556 198.496241,50.8055556 Z M61.2030075,36.875 L61.2030075,35.2361111 C61.2030075,32.0681444 58.6109719,29.5 55.4135338,29.5 C52.2160958,29.5 49.6240602,32.8875889 49.6240602,36.0555556 C49.6240602,39.2235222 52.2160958,42.6111111 55.4135338,42.6111111 C58.6109719,42.6111111 61.2030075,40.0429667 61.2030075,36.875 Z M140.361754,33.5972222 C139.650022,31.2278077 137.434679,29.5 134.81203,29.5 C132.189381,29.5 129.974038,31.2278077 129.262306,33.5972222 L140.361754,33.5972222 Z"/>
  </defs>
  <g fill="none" fill-rule="evenodd">
    <g transform="matrix(1 0 0 -1 0 274)">
      <path fill="#516EAD" d="M-1.13686838e-13,101 L-1.13686838e-13,40 L256,40 L256,109.5 C224,105.5 184.499399,103 165.5,103 C102.5,103 47.3333333,102.333333 -1.13686838e-13,101 Z"/>
      <path fill="#429A9F" d="M256,97 C240,95.6666667 221.5,95 200.5,95 C155,95 54.0410224,105.310061 0,103.5 L0,18 L256,18 L256,97 Z"/>
      <path fill="#60CCCC" d="M0,86.5 L0,9 L256,9 L256,86.5 C196,86.5 137,96.5 0,86.5 Z"/>
      <polygon fill="url(#a)" points="0 63 0 0 256 0 256 63" transform="matrix(1 0 0 -1 0 63)"/>
    </g>
    <g transform="translate(18 89)">
      <mask id="c" fill="white">
        <use xlink:href="#b"/>
      </mask>
      <use fill="#000000" fill-rule="nonzero" xlink:href="#b"/>
      <rect width="220" height="59" fill="#FFFFFF" mask="url(#c)"/>
    </g>
  </g>
</svg>
