<svg xmlns="http://www.w3.org/2000/svg" width="1330" height="360" viewBox="0 0 1330 360">
  <g fill="#000000" transform="translate(50 50)">
    <path d="M1150,80 C1196.9442,80 1230,120.5 1230,165 L1230,252 C1230,256.418278 1226.41828,260 1222,260 L1188,260 C1183.58172,260 1180,256.418278 1180,252 L1180,165 C1180,145.670034 1169.32997,130 1150,130 C1130.67003,130 1120,150.670034 1120,170 L1120,252 C1120,256.418278 1116.41828,260 1112,260 L1078,260 C1073.58172,260 1070,256.418278 1070,252 C1070,213.125773 1070,184.125773 1070,165 C1070,147.681328 1070,122.014662 1070,88 C1070,83.581722 1073.58172,80 1078,80 L1112,80 C1116.41828,80 1120,83.581722 1120,88 L1120,94.4923972 C1130.67368,85.5140313 1137.52289,80 1150,80 Z" transform="rotate(180 1150 170)"/>
    <path d="M960 80C1010 80 1040 118.055796 1040 165L1040 252C1040 256.418278 1036.41828 260 1032 260L998 260C993.581722 260 990 256.418278 990 252L990 165C990 145.670034 979.329966 130 960 130 940.670034 130 930 150.670034 930 170L930 252C930 256.418278 926.418278 260 922 260L888 260C883.581722 260 880 256.418278 880 252L880 88C880 83.581722 883.581722 80 888 80L922 80C926.418278 80 930 83.581722 930 88L930 94.4923972C937.5 85.5 947.52289 80 960 80zM850 165L850 177C850 181.418278 846.418278 185 842 185L731.416524 185C735.655965 199.531855 748.94935 210 765 210 777.278414 210 788.245065 207.128675 798.083205 202.265166 799.8689 201.382403 801.952509 200.196124 804.334031 198.70633 807.943505 196.448373 812.689088 197.412983 815.130628 200.900898L834.543329 228.633328C837.077045 232.252922 836.196766 237.241165 832.577172 239.774881 826.471554 243.621362 822.47048 245.985245 820.241151 247.087319 803.867842 255.181506 785.464232 260 765 260 717.794737 260 680 222.046694 680 175L680 165C680 118.055796 718.055796 80 765 80 811.944204 80 850 118.055796 850 165zM798.550607 155C794.247861 140.542555 780.855103 130 765 130 749.144897 130 735.752139 140.542555 731.449393 155L798.550607 155zM542.5 260L508 260C503.581722 260 500 256.418278 500 252L500 155C500 141.192881 488.807119 130 475 130 461.192881 130 450 146.192881 450 160L450 252C450 256.418278 446.418278 260 442 260L408 260C403.581722 260 400 256.418278 400 252L400 88C400 83.581722 403.581722 80 408 80L442 80C446.418278 80 450 83.581722 450 88L450 90.037752C457.819473 83.7431592 466.234114 80 475 80 496.395192 80 515.697959 88.9587395 529.361672 103.329591 542.027798 89.3861359 557.952796 80 575.25 80 616.533285 80 650 113.466715 650 154.75L650 252C650 256.418278 646.418278 260 642 260L608 260C603.581722 260 600 256.418278 600 252L600 154.75C600 141.080952 588.919048 130 575.25 130 561.580952 130 550.5 146.080952 550.5 159.75L550.5 252C550.5 256.418278 546.918278 260 542.5 260zM250 245.507603L250 252C250 256.418278 246.418278 260 242 260L208 260C203.581722 260 200 256.418278 200 252L200 8C200 3.581722 203.581722.11624501e-16 208 0L242 0C246.418278-.11624501e-16 250 3.581722 250 8L250 94.4923972C260.673676 85.5140313 272.52289 80 285 80 331.944204 80 370 118.055796 370 165L370 175C370 221.944204 331.944204 260 285 260 272.52289 260 260.673676 254.485969 249.999997 245.5076L250 245.507603zM320 175L320 165C320 145.670034 304.329966 130 285 130 265.670034 130 250 150.670034 250 170 250 189.329966 265.670034 210 285 210 304.329966 210 320 194.329966 320 175zM49.9999968 94.4923999C60.673676 85.5140313 72.5228898 80 85 80 131.944204 80 170 118.055796 170 165L170 252C170 256.418278 166.418278 260 162 260L128 260C123.581722 260 120 256.418278 120 252L120 165C120 145.670034 104.329966 130 85 130 65.6700338 130 50 150.670034 50 170L50 252C50 256.418278 46.418278 260 42 260L8 260C3.581722 260 .41083001e-16 256.418278 0 252L0 8C-.41083001e-16 3.581722 3.581722.11624501e-16 8 0L42 0C46.418278-.11624501e-16 50 3.581722 50 8L50 94.4923972 49.9999968 94.4923999z"/>
  </g>
</svg>
