<svg xmlns="http://www.w3.org/2000/svg" width="256" height="256" viewBox="0 0 256 256" xmlns:xlink="http://www.w3.org/1999/xlink" style="background:#ced5dd">
  <defs>
    <path id="b" d="M44,82 L128,82 L212,82 C223.045695,82 232,90.954305 232,102 L232,150 C232,161.045695 223.045695,170 212,170 L128,170 L44,170 C32.954305,170 24,161.045695 24,150 L24,102 C24,90.954305 32.954305,82 44,82 Z"/>
    <filter id="a" width="112.5%" height="129.5%" x="-6.2%" y="-12.5%" filterUnits="objectBoundingBox">
      <feOffset dy="2" in="SourceAlpha" result="shadowOffsetOuter1"/>
      <feGaussianBlur stdDeviation="4" in="shadowOffsetOuter1" result="shadowBlurOuter1"/>
      <feColorMatrix values="0 0 0 0 0.294117647 0 0 0 0 0.31372549 0 0 0 0 0.376470588 0 0 0 0.5 0" in="shadowBlurOuter1"/>
    </filter>
    <polygon id="c" points="53 80 203 80 203 168 53 168"/>
    <path id="e" d="M1,-2.27373675e-13 L6,-2.2903901e-13 C6.55228475,-2.29140463e-13 7,0.44771525 7,1 L7,10 L20,10 L20,1 C20,0.44771525 20.4477153,-2.13341556e-13 21,-2.31592523e-13 L26,-2.27373675e-13 C26.5522847,-2.29437238e-13 27,0.44771525 27,1 L27,26 C27,26.5522847 26.5522847,27 26,27 L21,27 C20.4477153,27 20,26.5522847 20,26 L20,17 L7,17 L7,26 C7,26.5522847 6.55228475,27 6,27 L1,27 C0.44771525,27 1.84808747e-13,26.5522847 1.84741111e-13,26 L1.84741111e-13,1 C1.84673476e-13,0.44771525 0.44771525,-2.27272222e-13 1,-2.27373675e-13 Z"/>
    <filter id="d" width="107.4%" height="114.8%" x="-3.7%" y="-3.7%" filterUnits="objectBoundingBox">
      <feOffset dy="2" in="SourceAlpha" result="shadowOffsetOuter1"/>
      <feColorMatrix values="0 0 0 0 0.231372549 0 0 0 0 0.368627451 0 0 0 0 0.521568627 0 0 0 1 0" in="shadowOffsetOuter1"/>
    </filter>
    <path id="g" d="M68.6467456,0 L74.7606619,1.33226763e-15 C75.0860991,1.27248577e-15 75.3911813,0.158361914 75.5784683,0.424506594 L80.5,7.4182622 L85.4215317,0.424506594 C85.6088187,0.158361914 85.9139009,2.8182646e-16 86.2393381,2.22044605e-16 L92.3532544,-4.4408921e-16 C92.9055392,1.41656731e-15 93.3532544,0.44771525 93.3532544,1 C93.3532544,1.2060189 93.2896234,1.40700983 93.1710609,1.57549341 L84.7797414,13.5 L93.1710609,25.4245066 C93.4888971,25.8761686 93.3804099,26.4999702 92.9287479,26.8178064 C92.7602643,26.9363689 92.5592733,27 92.3532544,27 L86.2393381,27 C85.9139009,27 85.6088187,26.8416381 85.4215317,26.5754934 L80.5,19.5817378 L75.5784683,26.5754934 C75.3911813,26.8416381 75.0860991,27 74.7606619,27 L68.6467456,27 C68.0944608,27 67.6467456,26.5522847 67.6467456,26 C67.6467456,25.7939811 67.7103766,25.5929902 67.8289391,25.4245066 L76.2202586,13.5 L67.8289391,1.57549341 C67.5111029,1.12383139 67.6195901,0.500029813 68.0712521,0.182193581 C68.2397357,0.0636310631 68.4407267,-2.9522185e-16 68.6467456,-3.33066907e-16 Z"/>
    <filter id="f" width="107.3%" height="114.8%" x="-3.6%" y="-3.7%" filterUnits="objectBoundingBox">
      <feOffset dy="2" in="SourceAlpha" result="shadowOffsetOuter1"/>
      <feColorMatrix values="0 0 0 0 0.231372549 0 0 0 0 0.368627451 0 0 0 0 0.521568627 0 0 0 1 0" in="shadowOffsetOuter1"/>
    </filter>
    <path id="i" d="M61.2921074,27 L55.8930778,27 C55.4864949,27 55.1203879,26.7538302 54.9669855,26.3772969 L53.5910497,23 L42.4089503,23 L41.0330145,26.3772969 C40.8796121,26.7538302 40.5135051,27 40.1069222,27 L34.7078926,27 C34.1556079,27 33.7078926,26.5522847 33.7078926,26 C33.7078926,25.8706378 33.7329923,25.7425045 33.7818003,25.6227031 L43.9669855,0.622703113 C44.1203879,0.246169773 44.4864949,1.01896904e-15 44.8930778,2.22044605e-16 L51.1069222,1.33226763e-15 C51.5135051,1.25757956e-15 51.8796121,0.246169773 52.0330145,0.622703113 L62.2181997,25.6227031 C62.426575,26.1341698 62.1808709,26.717717 61.6694042,26.9260924 C61.5496029,26.9749003 61.4214696,27 61.2921074,27 Z M51.1466053,17 L48,9.27651438 L44.8533947,17 L51.1466053,17 Z"/>
    <filter id="h" width="106.8%" height="114.8%" x="-3.4%" y="-3.7%" filterUnits="objectBoundingBox">
      <feOffset dy="2" in="SourceAlpha" result="shadowOffsetOuter1"/>
      <feColorMatrix values="0 0 0 0 0.231372549 0 0 0 0 0.368627451 0 0 0 0 0.521568627 0 0 0 1 0" in="shadowOffsetOuter1"/>
    </filter>
  </defs>
  <g fill="none" fill-rule="evenodd">
    <use fill="black" filter="url(#a)" xlink:href="#b"/>
    <use fill="#747887" xlink:href="#b"/>
    <path fill="#9498A8" d="M44,80 L128,80 L212,80 C223.045695,80 232,88.954305 232,100 L232,148 C232,159.045695 223.045695,168 212,168 L128,168 L44,168 C32.954305,168 24,159.045695 24,148 L24,100 C24,88.954305 32.954305,80 44,80 Z"/>
    <use fill="#232631" xlink:href="#c"/>
    <path stroke="#424A63" stroke-width="3" d="M54.5,81.5 L54.5,166.5 L201.5,166.5 L201.5,81.5 L54.5,81.5 Z"/>
    <rect width="123" height="67" x="67" y="90" fill="#3B5E85"/>
    <circle cx="39" cy="102" r="7" fill="#232631"/>
    <circle cx="217" cy="126" r="7" fill="#232631"/>
    <path fill="#232631" d="M32 129C33.6568542 129 35 127.656854 35 126 35 124.343146 33.6568542 123 32 123 30.3431458 123 29 124.343146 29 126 29 127.656854 30.3431458 129 32 129zM39 135C40.6568542 135 42 133.656854 42 132 42 130.343146 40.6568542 129 39 129 37.3431458 129 36 130.343146 36 132 36 133.656854 37.3431458 135 39 135zM46 129C44.3431458 129 43 127.656854 43 126 43 124.343146 44.3431458 123 46 123 47.6568542 123 49 124.343146 49 126 49 127.656854 47.6568542 129 46 129zM39 123C37.3431458 123 36 121.656854 36 120 36 118.343146 37.3431458 117 39 117 40.6568542 117 42 118.343146 42 120 42 121.656854 40.6568542 123 39 123zM224 105C222.343146 105 221 103.656854 221 102 221 100.343146 222.343146 99 224 99 225.656854 99 227 100.343146 227 102 227 103.656854 225.656854 105 224 105zM217 99C215.343146 99 214 97.6568542 214 96 214 94.3431458 215.343146 93 217 93 218.656854 93 220 94.3431458 220 96 220 97.6568542 218.656854 99 217 99zM217 111C215.343146 111 214 109.656854 214 108 214 106.343146 215.343146 105 217 105 218.656854 105 220 106.343146 220 108 220 109.656854 218.656854 111 217 111zM210 105C208.343146 105 207 103.656854 207 102 207 100.343146 208.343146 99 210 99 211.656854 99 213 100.343146 213 102 213 103.656854 211.656854 105 210 105z"/>
    <path fill="#4A7CB3" d="M67,131 C77.3333333,129.666667 87.6666667,129 98,129 C113.5,129 144.5,133 159,133 C168.666667,133 179,132.333333 190,131 L190,157 L67,157 L67,131 Z"/>
    <g transform="translate(80 110)">
      <use fill="black" filter="url(#d)" xlink:href="#e"/>
      <use fill="#FFFFFF" xlink:href="#e"/>
      <g fill-rule="nonzero">
        <use fill="black" filter="url(#f)" xlink:href="#g"/>
        <use fill="#FFFFFF" fill-rule="evenodd" xlink:href="#g"/>
      </g>
      <g fill-rule="nonzero">
        <use fill="black" filter="url(#h)" xlink:href="#i"/>
        <use fill="#FFFFFF" fill-rule="evenodd" xlink:href="#i"/>
      </g>
    </g>
  </g>
</svg>
