<svg xmlns="http://www.w3.org/2000/svg" width="256" height="256" viewBox="0 0 256 256" style="background:#d1dae3">
  <defs>
    <filter id="a" width="111.7%" height="113.8%" x="-5.9%" y="-4.4%" filterUnits="objectBoundingBox">
      <feOffset dy="4" in="SourceAlpha" result="shadowOffsetOuter1"/>
      <feGaussianBlur stdDeviation="3" in="shadowOffsetOuter1" result="shadowBlurOuter1"/>
      <feColorMatrix values="0 0 0 0 0.176470588 0 0 0 0 0.215686275 0 0 0 0 0.258823529 0 0 0 0.300016984 0" in="shadowBlurOuter1" result="shadowMatrixOuter1"/>
      <feMerge>
        <feMergeNode in="shadowMatrixOuter1"/>
        <feMergeNode in="SourceGraphic"/>
      </feMerge>
    </filter>
    <linearGradient id="b" x1="50%" x2="50%" y1="79.431%" y2="100%">
      <stop stop-color="#8088EA" offset="0%"/>
      <stop stop-color="#656FE4" offset="100%"/>
    </linearGradient>
    <linearGradient id="c" x1="50%" x2="50%" y1="78.02%" y2="100%">
      <stop stop-color="#80A2FF" offset="0%"/>
      <stop stop-color="#8095FF" offset="100%"/>
    </linearGradient>
  </defs>
  <g fill="none" fill-rule="evenodd" filter="url(#a)" transform="translate(32 48)">
    <path fill="url(#b)" d="M95.9999998,31.9999999 L180,31.9999999 C184.418278,31.9999999 188,35.5817219 188,39.9999999 L188,152 C188,156.418278 184.418278,160 180,160 L15.9999997,160 C7.16344373,160 -2.73804201e-07,152.836556 -2.73804202e-07,144 L-3.12338539e-07,7.99999966 C-3.1233854e-07,3.58172166 3.58172169,-3.39591337e-07 7.99999969,-3.39591338e-07 L67.9999999,-1.20494832e-08 C70.5180583,7.94807112e-11 72.8891648,1.18555326 74.3999999,3.19999998 L95.9999998,31.9999999 Z"/>
    <path fill="url(#c)" d="M0,24 L168,24.0000011 C172.418278,24.0000011 176,27.5817231 176,32.0000011 L176,152 C176,156.418278 179.581722,160 184,160 L8,160 C3.581722,160 5.41083001e-16,156.418278 0,152 L0,24 Z"/>
  </g>
</svg>
